<svg xmlns="http://www.w3.org/2000/svg" xmlns:xlink="http://www.w3.org/1999/xlink" width="1542" height="914" viewBox="0 0 1542 914">
  <defs>
    <radialGradient id="radial-gradient" cx="1" cy="1" r="0.998" gradientTransform="translate(0 0.014) scale(1 0.986)" gradientUnits="objectBoundingBox">
      <stop offset="0" stop-color="#2ced94"/>
      <stop offset="1" stop-color="#004147"/>
    </radialGradient>
    <clipPath id="clip-path">
      <rect id="Rectangle_5" data-name="Rectangle 5" width="1542" height="914" transform="translate(378 166)" opacity="0.7" fill="url(#radial-gradient)"/>
    </clipPath>
  </defs>
  <g id="Mask_Group_1" data-name="Mask Group 1" transform="translate(-378 -166)" clip-path="url(#clip-path)">
    <g id="Group_2" data-name="Group 2">
      <rect id="Rectangle_1" data-name="Rectangle 1" width="1542" height="914" transform="translate(378 166)" opacity="0.7" fill="url(#radial-gradient)"/>
      <g id="Path_4" data-name="Path 4" transform="translate(652.851 166)" fill="rgba(42,238,148,0)" opacity="0.1">
        <path d="M 1050.763793945312 1513.524169921875 L 588.3453369140625 1513.524169921875 C 557.3236694335938 1513.524169921875 526.4384155273438 1509.419555664062 496.5478210449219 1501.324584960938 C 467.1426086425781 1493.361083984375 438.8505249023438 1481.5810546875 412.4573974609375 1466.311889648438 C 386.0642700195312 1451.042724609375 361.7494812011719 1432.38818359375 340.188232421875 1410.8662109375 C 318.2709350585938 1388.989013671875 299.3173828125 1364.260375976562 283.8540649414062 1337.367553710938 L 51.39718627929688 933.0943603515625 C 36.0142707824707 906.3414306640625 24.21802139282227 877.6758422851562 16.33635330200195 847.8937377929688 C 8.581562042236328 818.5908203125 4.649479389190674 788.3502197265625 4.649479389190674 758.0119018554688 C 4.649479389190674 727.6735229492188 8.581562042236328 697.4329223632812 16.33635330200195 668.1301879882812 C 24.21802139282227 638.34814453125 36.0142707824707 609.6823120117188 51.39718627929688 582.9295654296875 L 283.8542785644531 178.6564636230469 C 299.3175964355469 151.7635498046875 318.2711486816406 127.0350036621094 340.1884460449219 105.1577072143555 C 361.7496948242188 83.63583374023438 386.0644836425781 64.98125457763672 412.4576110839844 49.71208572387695 C 438.8507385253906 34.44291687011719 467.142822265625 22.66312599182129 496.5478210449219 14.6995849609375 C 526.4386596679688 6.60458517074585 557.3236694335938 2.500001668930054 588.3453369140625 2.500001668930054 L 1050.763793945312 2.500001668930054 C 1081.785522460938 2.500001668930054 1112.670532226562 6.60458517074585 1142.561401367188 14.6995849609375 C 1171.966552734375 22.66312599182129 1200.258422851562 34.4431266784668 1226.651733398438 49.7122917175293 C 1253.044921875 64.98146057128906 1277.359741210938 83.63603973388672 1298.9208984375 105.1579208374023 C 1320.838256835938 127.0352096557617 1339.791748046875 151.7637481689453 1355.255126953125 178.6566619873047 L 1587.712158203125 582.9295654296875 C 1603.095092773438 609.6824951171875 1614.891357421875 638.34814453125 1622.773071289062 668.1301879882812 C 1630.52783203125 697.43310546875 1634.459838867188 727.6737670898438 1634.459838867188 758.0120849609375 C 1634.459838867188 788.3504028320312 1630.52783203125 818.591064453125 1622.773071289062 847.8939819335938 C 1614.891357421875 877.676025390625 1603.095092773438 906.3416748046875 1587.712158203125 933.0946044921875 L 1355.255126953125 1337.367553710938 C 1339.791748046875 1364.260375976562 1320.838256835938 1388.989013671875 1298.9208984375 1410.8662109375 C 1277.359741210938 1432.38818359375 1253.044921875 1451.042724609375 1226.651733398438 1466.311889648438 C 1200.258422851562 1481.5810546875 1171.966552734375 1493.361083984375 1142.561401367188 1501.324584960938 C 1112.670532226562 1509.419555664062 1081.785522460938 1513.524169921875 1050.763793945312 1513.524169921875 Z" stroke="none"/>
        <path d="M 588.3450927734375 5 C 557.5443115234375 5 526.8790283203125 9.0751953125 497.201171875 17.1126708984375 C 468.0054931640625 25.0194091796875 439.9149169921875 36.715576171875 413.70947265625 51.8760986328125 C 387.5040283203125 67.03662109375 363.3621826171875 85.558349609375 341.9544677734375 106.9271240234375 C 320.1932373046875 128.6485595703125 301.3746337890625 153.2010498046875 286.0213623046875 179.9024658203125 L 53.564453125 584.1755981445312 C 38.2908935546875 610.7383422851562 26.57861328125 639.1997680664062 18.753173828125 668.769775390625 C 11.053466796875 697.8639526367188 7.1495361328125 727.889404296875 7.1495361328125 758.0119018554688 C 7.1495361328125 788.1343994140625 11.053466796875 818.1597900390625 18.753173828125 847.2539672851562 C 26.57861328125 876.823974609375 38.2908935546875 905.28564453125 53.564453125 931.8483276367188 L 286.0213623046875 1336.121215820312 C 301.3746337890625 1362.82275390625 320.1932373046875 1387.375366210938 341.9544677734375 1409.096923828125 C 363.3621826171875 1430.465454101562 387.5040283203125 1448.9873046875 413.709228515625 1464.14794921875 C 439.9146728515625 1479.308349609375 468.0054931640625 1491.004638671875 497.201171875 1498.911499023438 C 526.87890625 1506.94873046875 557.5443115234375 1511.024169921875 588.3450927734375 1511.024169921875 L 1050.763916015625 1511.024169921875 C 1081.564697265625 1511.024169921875 1112.230102539062 1506.94873046875 1141.907836914062 1498.911499023438 C 1171.103637695312 1491.004638671875 1199.1943359375 1479.308349609375 1225.399658203125 1464.14794921875 C 1251.605102539062 1448.9873046875 1275.746948242188 1430.465454101562 1297.154663085938 1409.096923828125 C 1318.915893554688 1387.375366210938 1337.734497070312 1362.82275390625 1353.087768554688 1336.121215820312 L 1585.544677734375 931.8485717773438 C 1600.818237304688 905.2858276367188 1612.530517578125 876.8241577148438 1620.356201171875 847.254150390625 C 1628.055786132812 818.1599731445312 1631.959838867188 788.1345825195312 1631.959838867188 758.0120849609375 C 1631.959838867188 727.8895874023438 1628.055786132812 697.8641967773438 1620.356201171875 668.77001953125 C 1612.530517578125 639.2000122070312 1600.818237304688 610.7383422851562 1585.544677734375 584.1755981445312 L 1353.087768554688 179.9027099609375 C 1337.734497070312 153.2012939453125 1318.915893554688 128.6485595703125 1297.154663085938 106.9271240234375 C 1275.746948242188 85.55859375 1251.605102539062 67.03662109375 1225.399658203125 51.8760986328125 C 1199.1943359375 36.715576171875 1171.103637695312 25.0194091796875 1141.907836914062 17.1126708984375 C 1112.230102539062 9.0751953125 1081.564697265625 5 1050.763916015625 5 L 588.3450927734375 5 M 588.3450927734375 0 L 1050.763916015625 0 C 1177.365478515625 0 1294.315063476562 67.6583251953125 1357.42236328125 177.410400390625 L 1589.879272460938 581.683349609375 C 1652.653442382812 690.8554077148438 1652.653442382812 825.1687622070312 1589.879272460938 934.3408203125 L 1357.42236328125 1338.613525390625 C 1294.315063476562 1448.365600585938 1177.365478515625 1516.02392578125 1050.763916015625 1516.024169921875 L 588.3450927734375 1516.024169921875 C 461.743408203125 1516.02392578125 344.7940673828125 1448.365600585938 281.686767578125 1338.613525390625 L 49.2298583984375 934.3406372070312 C -13.5440673828125 825.1685180664062 -13.5440673828125 690.855224609375 49.2298583984375 581.683349609375 L 281.686767578125 177.41015625 C 344.7940673828125 67.6583251953125 461.74365234375 0 588.3450927734375 0 Z" stroke="none" fill="#2ced94"/>
      </g>
      <g id="Path_5" data-name="Path 5" transform="translate(786.851 290.705)" fill="rgba(42,238,148,0)" opacity="0.2">
        <path d="M 964.5073852539062 1388.819580078125 L 540.1261596679688 1388.819580078125 C 511.674560546875 1388.819580078125 483.3479614257812 1385.054931640625 455.9333801269531 1377.630615234375 C 428.9643859863281 1370.326782226562 403.0161743164062 1359.522583007812 378.8095703125 1345.518432617188 C 354.6029663085938 1331.51416015625 332.3023681640625 1314.405029296875 312.5273742675781 1294.666137695312 C 292.42578125 1274.601196289062 275.0423583984375 1251.921142578125 260.8599853515625 1227.256225585938 L 47.52437210083008 856.23779296875 C 33.415771484375 831.701171875 22.59697151184082 805.4102172851562 15.36817264556885 778.0953979492188 C 8.255772590637207 751.219970703125 4.649372577667236 723.4848022460938 4.649372577667236 695.6597900390625 C 4.649372577667236 667.8345947265625 8.255772590637207 640.099365234375 15.36817264556885 613.2239990234375 C 22.59697151184082 585.9091796875 33.415771484375 559.6181640625 47.52437210083008 535.0816040039062 L 260.8599853515625 164.0631866455078 C 275.0423583984375 139.398193359375 292.42578125 116.7181930541992 312.5273742675781 96.65319061279297 C 332.3023681640625 76.91439056396484 354.6029663085938 59.80519104003906 378.8095703125 45.80099105834961 C 403.0161743164062 31.79678916931152 428.9643859863281 20.99258995056152 455.9333801269531 13.68898963928223 C 483.3479614257812 6.264389991760254 511.674560546875 2.499989986419678 540.1261596679688 2.499989986419678 L 964.5073852539062 2.499989986419678 C 992.958984375 2.499989986419678 1021.285400390625 6.264389991760254 1048.699951171875 13.68898963928223 C 1075.6689453125 20.99279022216797 1101.6171875 31.79678916931152 1125.82373046875 45.80099105834961 C 1150.030517578125 59.80519104003906 1172.331176757812 76.91439056396484 1192.106201171875 96.65319061279297 C 1212.207763671875 116.7181930541992 1229.591186523438 139.398193359375 1243.773559570312 164.0631866455078 L 1457.109130859375 535.0816040039062 C 1471.2177734375 559.6181640625 1482.03662109375 585.9091796875 1489.265380859375 613.2239990234375 C 1496.377807617188 640.099365234375 1499.984130859375 667.8345947265625 1499.984130859375 695.6597900390625 C 1499.984130859375 723.4848022460938 1496.377807617188 751.219970703125 1489.265380859375 778.0953979492188 C 1482.03662109375 805.4102172851562 1471.2177734375 831.701171875 1457.109130859375 856.23779296875 L 1243.773559570312 1227.256225585938 C 1229.591186523438 1251.921142578125 1212.207763671875 1274.601196289062 1192.106201171875 1294.666137695312 C 1172.331176757812 1314.405029296875 1150.030517578125 1331.51416015625 1125.823974609375 1345.518432617188 C 1101.617431640625 1359.522583007812 1075.6689453125 1370.326782226562 1048.699951171875 1377.630615234375 C 1021.285583496094 1385.054931640625 992.958984375 1388.819580078125 964.5073852539062 1388.819580078125 Z" stroke="none"/>
        <path d="M 540.1261596679688 5 C 511.8952026367188 5 483.78857421875 8.7352294921875 456.5869140625 16.10205078125 C 429.8271484375 23.3489990234375 404.080322265625 34.0693359375 380.0614013671875 47.96484375 C 356.0426025390625 61.8603515625 333.9149169921875 78.8370361328125 314.2935791015625 98.422607421875 C 294.34814453125 118.33154296875 277.099609375 140.8355712890625 263.02734375 165.3092041015625 L 49.6915283203125 536.3278198242188 C 35.6923828125 560.6740112304688 24.9573974609375 586.760986328125 17.7847900390625 613.8635864257812 C 10.7275390625 640.5303955078125 7.1494140625 668.0504150390625 7.1494140625 695.6596069335938 C 7.1494140625 723.268798828125 10.7275390625 750.7890014648438 17.7847900390625 777.45556640625 C 24.9573974609375 804.5584106445312 35.6923828125 830.6452026367188 49.6915283203125 854.9913940429688 L 263.0272216796875 1226.010009765625 C 277.099365234375 1250.483764648438 294.3480224609375 1272.987548828125 314.2933349609375 1292.896728515625 C 333.914794921875 1312.482421875 356.0423583984375 1329.458740234375 380.0611572265625 1343.354614257812 C 404.0802001953125 1357.250244140625 429.8271484375 1367.970336914062 456.5867919921875 1375.217407226562 C 483.7883911132812 1382.584228515625 511.8952026367188 1386.319580078125 540.1261596679688 1386.319580078125 L 964.5073852539062 1386.319580078125 C 992.7384033203125 1386.319580078125 1020.844970703125 1382.584228515625 1048.046630859375 1375.217407226562 C 1074.80615234375 1367.970336914062 1100.55322265625 1357.250244140625 1124.572021484375 1343.354614257812 C 1148.590942382812 1329.458740234375 1170.718383789062 1312.482421875 1190.339965820312 1292.896728515625 C 1210.285400390625 1272.987548828125 1227.533813476562 1250.483764648438 1241.60595703125 1226.010009765625 L 1454.941772460938 854.9915771484375 C 1468.94091796875 830.6453857421875 1479.676025390625 804.5584106445312 1486.8486328125 777.455810546875 C 1493.90576171875 750.7890014648438 1497.484130859375 723.2689819335938 1497.484130859375 695.6596069335938 C 1497.484130859375 668.0504150390625 1493.90576171875 640.5303955078125 1486.8486328125 613.8635864257812 C 1479.676025390625 586.760986328125 1468.94091796875 560.6740112304688 1454.941772460938 536.3278198242188 L 1241.60595703125 165.3094482421875 C 1227.533813476562 140.8355712890625 1210.285400390625 118.331787109375 1190.33984375 98.422607421875 C 1170.718383789062 78.8370361328125 1148.5908203125 61.860595703125 1124.572021484375 47.9649658203125 C 1100.552978515625 34.0693359375 1074.80615234375 23.3489990234375 1048.04638671875 16.10205078125 C 1020.844970703125 8.7352294921875 992.7384033203125 5 964.5073852539062 5 L 540.1261596679688 5 M 540.1261596679688 0 L 964.5073852539062 0 C 1080.69482421875 0 1188.024536132812 62.093017578125 1245.940551757812 162.8170166015625 L 1459.2763671875 533.8353881835938 C 1516.88671875 634.0271606445312 1516.88671875 757.2921752929688 1459.2763671875 857.4840087890625 L 1245.940551757812 1228.50244140625 C 1188.024536132812 1329.226440429688 1080.694946289062 1391.3193359375 964.5073852539062 1391.319580078125 L 540.1261596679688 1391.319580078125 C 423.938232421875 1391.3193359375 316.6087646484375 1329.226440429688 258.692626953125 1228.50244140625 L 45.35693359375 857.4837646484375 C -12.253173828125 757.2921752929688 -12.253173828125 634.0271606445312 45.35693359375 533.8353881835938 L 258.6927490234375 162.8167724609375 C 316.6090087890625 62.093017578125 423.9383544921875 0 540.1261596679688 0 Z" stroke="none" fill="#2ced94"/>
      </g>
      <g id="Path_6" data-name="Path 6" transform="translate(923.851 417.732)" fill="rgba(42,238,148,0)" opacity="0.3">
        <path d="M 876.6438598632812 1261.7919921875 L 491.0087890625 1261.7919921875 C 465.1749572753906 1261.7919921875 439.45458984375 1258.373779296875 414.5625915527344 1251.632446289062 C 390.074951171875 1245.000610351562 366.5140380859375 1235.190673828125 344.5347900390625 1222.474853515625 C 322.5553283691406 1209.759155273438 302.3066101074219 1194.22412109375 284.3509521484375 1176.301391601562 C 266.0989685058594 1158.082641601562 250.3149566650391 1137.489379882812 237.4375 1115.09375 L 43.57950592041016 777.9494018554688 C 30.76914405822754 755.6702880859375 20.94550704956055 731.7982788085938 14.38187026977539 706.9966430664062 C 7.92387056350708 682.5941162109375 4.64950704574585 657.41064453125 4.64950704574585 632.145751953125 C 4.64950704574585 606.880859375 7.92387056350708 581.6973876953125 14.38187026977539 557.2948608398438 C 20.94550704956055 532.4932250976562 30.76914405822754 508.6213989257812 43.57950592041016 486.34228515625 L 237.4376831054688 149.1979370117188 C 250.3151397705078 126.8022994995117 266.0991516113281 106.2092056274414 284.3511352539062 87.99029541015625 C 302.3066101074219 70.06757354736328 322.5553283691406 54.53266143798828 344.5347900390625 41.81684494018555 C 366.5140380859375 29.1012077331543 390.074951171875 19.29120826721191 414.5625915527344 12.65938949584961 C 439.45458984375 5.918117046356201 465.1749572753906 2.499935150146484 491.0087890625 2.499935150146484 L 876.6438598632812 2.499935150146484 C 902.4776611328125 2.499935150146484 928.1978759765625 5.918117046356201 953.0900268554688 12.65938949584961 C 977.5776977539062 19.29120826721191 1001.138427734375 29.1012077331543 1023.117858886719 41.81684494018555 C 1045.097534179688 54.53266143798828 1065.34619140625 70.06757354736328 1083.301635742188 87.99029541015625 C 1101.5537109375 106.2092056274414 1117.337646484375 126.8022994995117 1130.215087890625 149.1979370117188 L 1324.073120117188 486.34228515625 C 1336.883666992188 508.6213989257812 1346.707153320312 532.4932250976562 1353.27099609375 557.2948608398438 C 1359.72900390625 581.6973876953125 1363.003540039062 606.8810424804688 1363.003540039062 632.1459350585938 C 1363.003540039062 657.4108276367188 1359.72900390625 682.5942993164062 1353.27099609375 706.996826171875 C 1346.707153320312 731.7984619140625 1336.883666992188 755.6704711914062 1324.073120117188 777.9495849609375 L 1130.215087890625 1115.09375 C 1117.337646484375 1137.489379882812 1101.5537109375 1158.082641601562 1083.301635742188 1176.301391601562 C 1065.34619140625 1194.22412109375 1045.097534179688 1209.759155273438 1023.117858886719 1222.474853515625 C 1001.138610839844 1235.190673828125 977.5776977539062 1245.000610351562 953.0900268554688 1251.632446289062 C 928.1978759765625 1258.373779296875 902.4776611328125 1261.7919921875 876.6438598632812 1261.7919921875 Z" stroke="none"/>
        <path d="M 491.0087890625 4.9998779296875 C 465.3955078125 4.9998779296875 439.8951416015625 8.3887939453125 415.216064453125 15.072509765625 C 390.9376831054688 21.6475830078125 367.5782470703125 31.37353515625 345.78662109375 43.980712890625 C 323.9949951171875 56.5877685546875 303.919189453125 71.9901123046875 286.1171875 89.759521484375 C 268.0213623046875 107.822509765625 252.3721923828125 128.2396240234375 239.604736328125 150.4439697265625 L 45.746826171875 487.5885009765625 C 33.045654296875 509.6771850585938 23.3062744140625 533.3450317382812 16.798583984375 557.9345092773438 C 10.3958740234375 582.1284790039062 7.1492919921875 607.0966796875 7.1492919921875 632.145751953125 C 7.1492919921875 657.19482421875 10.3958740234375 682.1632080078125 16.798583984375 706.3570556640625 C 23.3062744140625 730.9466552734375 33.045654296875 754.614501953125 45.746826171875 776.7032470703125 L 239.604736328125 1113.847534179688 C 252.3721923828125 1136.052001953125 268.0211181640625 1156.468994140625 286.1171875 1174.532104492188 C 303.919189453125 1192.301513671875 323.9947509765625 1207.703735351562 345.78662109375 1220.31103515625 C 367.5782470703125 1232.918090820312 390.9376831054688 1242.644287109375 415.216064453125 1249.219360351562 C 439.8951416015625 1255.903076171875 465.3955078125 1259.2919921875 491.0087890625 1259.2919921875 L 876.6438598632812 1259.2919921875 C 902.2571411132812 1259.2919921875 927.75732421875 1255.903076171875 952.4365844726562 1249.219360351562 C 976.7149658203125 1242.644287109375 1000.074401855469 1232.918090820312 1021.866088867188 1220.31103515625 C 1043.657836914062 1207.703735351562 1063.733520507812 1192.301513671875 1081.535522460938 1174.531982421875 C 1099.631469726562 1156.468994140625 1115.280395507812 1136.052001953125 1128.0478515625 1113.847534179688 L 1321.905883789062 776.703369140625 C 1334.60693359375 754.6146240234375 1344.346435546875 730.9468383789062 1350.85400390625 706.357177734375 C 1357.2568359375 682.1632080078125 1360.503295898438 657.1950073242188 1360.503295898438 632.1459350585938 C 1360.503295898438 607.0968627929688 1357.2568359375 582.1284790039062 1350.85400390625 557.9345092773438 C 1344.346435546875 533.3450317382812 1334.60693359375 509.6771850585938 1321.905883789062 487.5885009765625 L 1128.0478515625 150.444091796875 C 1115.280395507812 128.23974609375 1099.631469726562 107.8226318359375 1081.535522460938 89.759765625 C 1063.733520507812 71.9901123046875 1043.657836914062 56.587890625 1021.866088867188 43.9808349609375 C 1000.07421875 31.373779296875 976.7147827148438 21.6475830078125 952.4365844726562 15.072509765625 C 927.75732421875 8.3887939453125 902.2571411132812 4.9998779296875 876.6438598632812 4.9998779296875 L 491.0087890625 4.9998779296875 M 491.0087890625 -0.0001220703125 L 876.6438598632812 -0.0001220703125 C 982.2235107421875 -0.0001220703125 1079.754028320312 56.4239501953125 1132.382446289062 147.9517822265625 L 1326.240478515625 485.0961303710938 C 1378.590942382812 576.1403198242188 1378.590942382812 688.1513671875 1326.240478515625 779.1957397460938 L 1132.382446289062 1116.339965820312 C 1079.754028320312 1207.867919921875 982.2235107421875 1264.291748046875 876.6438598632812 1264.2919921875 L 491.0087890625 1264.2919921875 C 385.428955078125 1264.291748046875 287.8985595703125 1207.867919921875 235.270263671875 1116.339965820312 L 41.4122314453125 779.195556640625 C -10.9383544921875 688.1511840820312 -10.9383544921875 576.1403198242188 41.4122314453125 485.0961303710938 L 235.270263671875 147.9515380859375 C 287.8988037109375 56.4237060546875 385.428955078125 -0.0001220703125 491.0087890625 -0.0001220703125 Z" stroke="none" fill="#2ced94"/>
      </g>
      <g id="Path_7" data-name="Path 7" transform="translate(1055.851 540)" fill="rgba(42,238,148,0)" opacity="0.4">
        <path d="M 792.0729370117188 1139.524291992188 L 443.7319946289062 1139.524291992188 C 420.4176940917969 1139.524291992188 397.2061462402344 1136.439453125 374.7418518066406 1130.355590820312 C 352.6426086425781 1124.370727539062 331.3798522949219 1115.517456054688 311.5441589355469 1104.041870117188 C 291.7084655761719 1092.566528320312 273.4347839355469 1078.546752929688 257.23046875 1062.3720703125 C 240.7587738037109 1045.930297851562 226.5143127441406 1027.345581054688 214.8927764892578 1007.134399414062 L 39.78246688842773 702.5945434570312 C 28.22154235839844 682.488525390625 19.35615730285645 660.9450073242188 13.43277359008789 638.562255859375 C 7.60461950302124 616.5399169921875 4.649542808532715 593.8126831054688 4.649542808532715 571.0120849609375 C 4.649542808532715 548.2113037109375 7.60461950302124 525.4840698242188 13.43277359008789 503.4617919921875 C 19.35615730285645 481.0790100097656 28.22154235839844 459.5354614257812 39.78246688842773 439.4294738769531 L 214.8927764892578 134.8896179199219 C 226.5143127441406 114.6783905029297 240.7587738037109 96.09378051757812 257.2306213378906 79.65208435058594 C 273.4347839355469 63.47747039794922 291.7086181640625 49.45762252807617 311.5443115234375 37.98223876953125 C 331.3800048828125 26.50670051574707 352.6427612304688 17.65346908569336 374.7420043945312 11.66854667663574 C 397.2061462402344 5.584854125976562 420.4178466796875 2.50008487701416 443.7319946289062 2.50008487701416 L 792.0729370117188 2.50008487701416 C 815.3870849609375 2.50008487701416 838.5986328125 5.584854125976562 861.0629272460938 11.66854667663574 C 883.1621704101562 17.65346908569336 904.4249267578125 26.50670051574707 924.2606201171875 37.98223876953125 C 944.0963134765625 49.45762252807617 962.3701782226562 63.47747039794922 978.5743408203125 79.65208435058594 C 995.046142578125 96.09393310546875 1009.290649414062 114.6785430908203 1020.912170410156 134.8897705078125 L 1196.0224609375 439.4294738769531 C 1207.583374023438 459.5354614257812 1216.44873046875 481.0790100097656 1222.372314453125 503.4617919921875 C 1228.200439453125 525.4840698242188 1231.155517578125 548.2113037109375 1231.155517578125 571.0120849609375 C 1231.155517578125 593.8126831054688 1228.200439453125 616.5399169921875 1222.372314453125 638.5623779296875 C 1216.44873046875 660.9450073242188 1207.583374023438 682.488525390625 1196.0224609375 702.5947265625 L 1020.912170410156 1007.134399414062 C 1009.290649414062 1027.345581054688 995.046142578125 1045.930297851562 978.5743408203125 1062.3720703125 C 962.3701782226562 1078.546752929688 944.0963134765625 1092.566528320312 924.2606201171875 1104.041870117188 C 904.4249267578125 1115.517456054688 883.1621704101562 1124.370727539062 861.0629272460938 1130.355590820312 C 838.5986328125 1136.439453125 815.3870849609375 1139.524291992188 792.0729370117188 1139.524291992188 Z" stroke="none"/>
        <path d="M 443.7319946289062 4.9998779296875 C 420.6384887695312 4.9998779296875 397.6466064453125 8.055419921875 375.3954467773438 14.08154296875 C 353.505615234375 20.009765625 332.4441528320312 28.779052734375 312.796142578125 40.1458740234375 C 293.1483154296875 51.512939453125 275.0474853515625 65.39990234375 258.996826171875 81.4212646484375 C 242.68115234375 97.707275390625 228.5716552734375 116.11572265625 217.0601196289062 136.1357421875 L 41.9495849609375 440.6755981445312 C 30.4981689453125 460.5914306640625 21.7166748046875 481.930908203125 15.8492431640625 504.1012573242188 C 10.076416015625 525.9151000976562 7.1492919921875 548.4270629882812 7.1492919921875 571.0119018554688 C 7.1492919921875 593.596923828125 10.076416015625 616.1089477539062 15.8492431640625 637.9227294921875 C 21.7166748046875 660.0930786132812 30.4981689453125 681.4326171875 41.9495849609375 701.348388671875 L 217.0599365234375 1005.888061523438 C 228.5714721679688 1025.908081054688 242.6809692382812 1044.316772460938 258.9966430664062 1060.6025390625 C 275.0473022460938 1076.6240234375 293.1481323242188 1090.511108398438 312.7959594726562 1101.878051757812 C 332.4439697265625 1113.244873046875 353.5054931640625 1122.014282226562 375.3953247070312 1127.9423828125 C 397.6466064453125 1133.968627929688 420.6383056640625 1137.024047851562 443.7319946289062 1137.024047851562 L 792.072998046875 1137.024047851562 C 815.16650390625 1137.024047851562 838.1581420898438 1133.968627929688 860.409423828125 1127.9423828125 C 882.29931640625 1122.014282226562 903.36083984375 1113.244873046875 923.0087890625 1101.878051757812 C 942.6567993164062 1090.511108398438 960.7574462890625 1076.6240234375 976.8082885742188 1060.6025390625 C 993.1239624023438 1044.316772460938 1007.233459472656 1025.908081054688 1018.744995117188 1005.888061523438 L 1193.855102539062 701.3485717773438 C 1205.306640625 681.4327392578125 1214.088134765625 660.09326171875 1219.955444335938 637.9227294921875 C 1225.728271484375 616.1089477539062 1228.655517578125 593.596923828125 1228.655517578125 571.0120849609375 C 1228.655517578125 548.4270629882812 1225.728271484375 525.9151000976562 1219.955444335938 504.1012573242188 C 1214.088134765625 481.930908203125 1205.306640625 460.5914306640625 1193.855102539062 440.6755981445312 L 1018.744995117188 136.1359252929688 C 1007.233459472656 116.115966796875 993.1239624023438 97.7073974609375 976.8082885742188 81.42138671875 C 960.7574462890625 65.39990234375 942.6567993164062 51.512939453125 923.0087890625 40.1461181640625 C 903.36083984375 28.779052734375 882.29931640625 20.009765625 860.409423828125 14.08154296875 C 838.1581420898438 8.055419921875 815.16650390625 4.9998779296875 792.072998046875 4.9998779296875 L 443.7319946289062 4.9998779296875 M 443.7319946289062 -0.0001220703125 L 792.072998046875 -0.0001220703125 C 887.442138671875 -0.0001220703125 975.5406494140625 50.96728515625 1023.079467773438 133.6435546875 L 1198.189575195312 438.1832275390625 C 1245.477416992188 520.4227294921875 1245.477416992188 621.6012573242188 1198.189575195312 703.8409423828125 L 1023.079467773438 1008.380432128906 C 975.5406494140625 1091.056884765625 887.442138671875 1142.024047851562 792.072998046875 1142.024047851562 L 443.7319946289062 1142.024047851562 C 348.3624877929688 1142.024047851562 260.2642822265625 1091.056884765625 212.7254638671875 1008.380432128906 L 37.6151123046875 703.8407592773438 C -9.6727294921875 621.6012573242188 -9.6727294921875 520.4227294921875 37.6151123046875 438.1832275390625 L 212.7256469726562 133.6434326171875 C 260.2644653320312 50.967041015625 348.3626098632812 -0.0001220703125 443.7319946289062 -0.0001220703125 Z" stroke="none" fill="#2ced94"/>
      </g>
      <g id="Path_8" data-name="Path 8" transform="translate(1214.851 687.024)" fill="rgba(42,238,148,0)" opacity="0.5">
        <path d="M 690.3784790039062 992.5003051757812 L 386.8827514648438 992.5003051757812 C 366.5984802246094 992.5003051757812 346.4033203125 989.8164672851562 326.8586120605469 984.5233154296875 C 307.6313171386719 979.316162109375 289.1317443847656 971.6135864257812 271.8739013671875 961.6294555664062 C 254.6160430908203 951.6453247070312 238.7171936035156 939.4474487304688 224.618896484375 925.374755859375 C 210.2876129150391 911.0697631835938 197.8944702148438 894.9003295898438 187.7833251953125 877.3157348632812 L 35.21661376953125 611.9822998046875 C 25.15804290771484 594.4891967773438 17.44475746154785 575.7454833984375 12.29118633270264 556.2716064453125 C 7.22047233581543 537.111328125 4.649329662322998 517.3375854492188 4.649329662322998 497.5001831054688 C 4.649329662322998 477.66259765625 7.22047233581543 457.8888854980469 12.29118633270264 438.7286071777344 C 17.44490051269531 419.2547607421875 25.15804290771484 400.5110473632812 35.21661376953125 383.0178833007812 L 187.7833251953125 117.6844711303711 C 197.8944702148438 100.0998992919922 210.2877655029297 83.93046569824219 224.618896484375 69.62546539306641 C 238.7171936035156 55.55289840698242 254.6161804199219 43.35504150390625 271.8740539550781 33.37089920043945 C 289.1318969726562 23.38675498962402 307.6314697265625 15.68418312072754 326.8586120605469 10.47704029083252 C 346.4034729003906 5.183897495269775 366.5984802246094 2.500040292739868 386.8827514648438 2.500040292739868 L 690.3784790039062 2.500040292739868 C 710.6627807617188 2.500040292739868 730.8577880859375 5.183897495269775 750.402587890625 10.47704029083252 C 769.6298828125 15.68418312072754 788.1293334960938 23.38675498962402 805.3873291015625 33.37089920043945 C 822.6452026367188 43.35504150390625 838.5440673828125 55.55289840698242 852.6424560546875 69.62546539306641 C 866.9736328125 83.93046569824219 879.3668823242188 100.0998992919922 889.47802734375 117.6844711303711 L 1042.044555664062 383.0178833007812 C 1052.103149414062 400.5110473632812 1059.816528320312 419.2547607421875 1064.970092773438 438.7286071777344 C 1070.040771484375 457.8888854980469 1072.611938476562 477.66259765625 1072.611938476562 497.5001831054688 C 1072.611938476562 517.3377685546875 1070.040771484375 537.111328125 1064.970092773438 556.271728515625 C 1059.816528320312 575.7454833984375 1052.103149414062 594.4893188476562 1042.044555664062 611.9824829101562 L 889.47802734375 877.3157348632812 C 879.3668823242188 894.9003295898438 866.9736328125 911.0697631835938 852.6424560546875 925.374755859375 C 838.5440673828125 939.4474487304688 822.6452026367188 951.6453247070312 805.3873291015625 961.6294555664062 C 788.1293334960938 971.6135864257812 769.6298828125 979.316162109375 750.402587890625 984.5233154296875 C 730.8577880859375 989.8164672851562 710.6627807617188 992.5003051757812 690.3784790039062 992.5003051757812 Z" stroke="none"/>
        <path d="M 386.8827514648438 5.00006103515625 C 366.8190307617188 5.00006103515625 346.8438720703125 7.65460205078125 327.5120239257812 12.8900146484375 C 308.4942016601562 18.04046630859375 290.196044921875 25.6593017578125 273.1259155273438 35.534912109375 C 256.0557861328125 45.41033935546875 240.3298950195312 57.4754638671875 226.3850708007812 71.394775390625 C 212.2100219726562 85.54388427734375 199.9517822265625 101.537353515625 189.9506225585938 118.9306030273438 L 37.3839111328125 384.26416015625 C 27.434814453125 401.56689453125 19.805419921875 420.1066284179688 14.7078857421875 439.3681640625 C 9.6925048828125 458.3198852539062 7.1492919921875 477.8782958984375 7.1492919921875 497.5000305175781 C 7.1492919921875 517.1218872070312 9.6925048828125 536.6802978515625 14.7078857421875 555.632080078125 C 19.805419921875 574.8936157226562 27.434814453125 593.433349609375 37.3839111328125 610.7362060546875 L 189.9505004882812 876.069580078125 C 199.9515991210938 893.462890625 212.2098999023438 909.456298828125 226.3848876953125 923.60546875 C 240.3297729492188 937.5247802734375 256.0556030273438 949.5899047851562 273.125732421875 959.4654541015625 C 290.196044921875 969.3408813476562 308.4942016601562 976.9597778320312 327.5120239257812 982.1101684570312 C 346.8438720703125 987.3455810546875 366.8190307617188 990.0003051757812 386.8827514648438 990.0003051757812 L 690.3784790039062 990.0003051757812 C 710.4421997070312 990.0003051757812 730.4173583984375 987.3455810546875 749.7490234375 982.1101684570312 C 768.7670288085938 976.9597778320312 787.065185546875 969.3408813476562 804.1353149414062 959.4654541015625 C 821.2054443359375 949.5899047851562 836.9314575195312 937.5247802734375 850.876220703125 923.60546875 C 865.0512084960938 909.456298828125 877.3094482421875 893.462890625 887.3106079101562 876.069580078125 L 1039.877319335938 610.7362060546875 C 1049.826416015625 593.4334716796875 1057.455810546875 574.893798828125 1062.553344726562 555.6322021484375 C 1067.568725585938 536.6802978515625 1070.111938476562 517.1218872070312 1070.111938476562 497.5001831054688 C 1070.111938476562 477.8784790039062 1067.568725585938 458.320068359375 1062.553344726562 439.3681640625 C 1057.455810546875 420.1066284179688 1049.826416015625 401.56689453125 1039.877319335938 384.2640380859375 L 887.3106079101562 118.9306030273438 C 877.3094482421875 101.537353515625 865.0512084960938 85.5440673828125 850.876220703125 71.3948974609375 C 836.9314575195312 57.4754638671875 821.2054443359375 45.41046142578125 804.1353149414062 35.534912109375 C 787.065185546875 25.6593017578125 768.7670288085938 18.04046630859375 749.7490234375 12.8900146484375 C 730.4173583984375 7.65460205078125 710.4421997070312 5.00006103515625 690.3784790039062 5.00006103515625 L 386.8827514648438 5.00006103515625 M 386.8827514648438 6.103515625e-05 L 690.3784790039062 6.103515625e-05 C 773.4699096679688 6.103515625e-05 850.2266235351562 44.40576171875 891.6452026367188 116.4383544921875 L 1044.2119140625 381.771728515625 C 1085.411865234375 453.4237670898438 1085.411865234375 541.5765991210938 1044.2119140625 613.2286376953125 L 891.6452026367188 878.5618896484375 C 850.2266235351562 950.5946044921875 773.4699096679688 995.0001831054688 690.3784790039062 995.0003051757812 L 386.8827514648438 995.0003051757812 C 303.7911987304688 995.0001831054688 227.0346069335938 950.5946044921875 185.6159057617188 878.5618896484375 L 33.04931640625 613.2284545898438 C -8.150634765625 541.5764770507812 -8.150634765625 453.4237670898438 33.04931640625 381.771728515625 L 185.6160278320312 116.4383544921875 C 227.0347290039062 44.4056396484375 303.7911987304688 6.103515625e-05 386.8827514648438 6.103515625e-05 Z" stroke="none" fill="#2ced94"/>
      </g>
      <g id="Path_9" data-name="Path 9" transform="translate(1353.851 816.133)" fill="rgba(42,238,148,0)" opacity="0.6">
        <path d="M 601.0750732421875 863.390869140625 L 336.9603881835938 863.390869140625 C 319.3367309570312 863.390869140625 301.7907409667969 861.0589599609375 284.8096618652344 856.4601440429688 C 268.1044921875 851.93603515625 252.0315551757812 845.2437744140625 237.0374450683594 836.5693359375 C 222.0431976318359 827.8947143554688 208.2297973632812 817.2969360351562 195.9807281494141 805.0702514648438 C 183.5294342041016 792.6416625976562 172.7617950439453 778.5932006835938 163.9769744873047 763.3150634765625 L 31.20708656311035 532.4108276367188 C 22.46790885925293 517.21240234375 15.76638031005859 500.9271850585938 11.28873252868652 484.0079040527344 C 6.883203506469727 467.3607177734375 4.649438858032227 450.1808471679688 4.649438858032227 432.9454345703125 C 4.649438858032227 415.7098999023438 6.883203506469727 398.530029296875 11.28873252868652 381.8828430175781 C 15.76638031005859 364.9635620117188 22.46790885925293 348.6783752441406 31.20708656311035 333.4799194335938 L 163.9770812988281 102.5756683349609 C 172.7619018554688 87.29755401611328 183.5295562744141 73.24908447265625 195.9808502197266 60.82049179077148 C 208.2299041748047 48.59390640258789 222.0433197021484 37.99602127075195 237.0374450683594 29.32155227661133 C 252.0316772460938 20.64696311950684 268.1044921875 13.9547290802002 284.8096618652344 9.430610656738281 C 301.7907409667969 4.831787586212158 319.3367309570312 2.500022888183594 336.9603881835938 2.500022888183594 L 601.0750732421875 2.500022888183594 C 618.69873046875 2.500022888183594 636.2447509765625 4.831787586212158 653.2257690429688 9.430610656738281 C 669.9309692382812 13.9547290802002 686.00390625 20.64708137512207 700.998046875 29.32155227661133 C 715.9922485351562 37.99613952636719 729.8056640625 48.59390640258789 742.0547485351562 60.82061004638672 C 754.5061645507812 73.24919891357422 765.2738037109375 87.29766845703125 774.05859375 102.5757904052734 L 906.8284912109375 333.4799194335938 C 915.5676879882812 348.6783752441406 922.2692260742188 364.9635620117188 926.746826171875 381.8829650878906 C 931.1524047851562 398.530029296875 933.3862915039062 415.7098999023438 933.3862915039062 432.9454345703125 C 933.3862915039062 450.1809692382812 931.1524047851562 467.36083984375 926.746826171875 484.0079040527344 C 922.2692260742188 500.9273071289062 915.5676879882812 517.2124633789062 906.8284912109375 532.4109497070312 L 774.05859375 763.3150634765625 C 765.2738037109375 778.5932006835938 754.5061645507812 792.6416625976562 742.0547485351562 805.0702514648438 C 729.8056640625 817.2969360351562 715.9922485351562 827.8947143554688 700.998046875 836.5693359375 C 686.00390625 845.2437744140625 669.9309692382812 851.93603515625 653.2257690429688 856.4601440429688 C 636.2447509765625 861.0589599609375 618.69873046875 863.390869140625 601.0750732421875 863.390869140625 Z" stroke="none"/>
        <path d="M 336.9603881835938 4.99993896484375 C 319.5574340820312 4.99993896484375 302.2312622070312 7.30242919921875 285.4631958007812 11.84368896484375 C 268.9674072265625 16.31103515625 253.0957641601562 22.9195556640625 238.2894287109375 31.48541259765625 C 223.48291015625 40.05145263671875 209.842529296875 50.51641845703125 197.7470703125 62.58990478515625 C 185.451904296875 74.862548828125 174.8191528320312 88.73504638671875 166.144287109375 103.8218383789062 L 33.374267578125 334.72607421875 C 24.74456787109375 349.7343139648438 18.12701416015625 365.8153076171875 13.70556640625 382.5224304199219 C 9.35516357421875 398.9609375 7.1494140625 415.9256896972656 7.1494140625 432.9453125 C 7.1494140625 449.9650573730469 9.35516357421875 466.9298095703125 13.70556640625 483.3683166503906 C 18.12701416015625 500.075439453125 24.74456787109375 516.1564331054688 33.374267578125 531.1646728515625 L 166.1441650390625 762.0689086914062 C 174.8190307617188 777.1557006835938 185.4517822265625 791.028076171875 197.7468872070312 803.30078125 C 209.8424072265625 815.3743286132812 223.4827880859375 825.8392944335938 238.289306640625 834.4053344726562 C 253.0957641601562 842.97119140625 268.96728515625 849.5797119140625 285.4631958007812 854.0470581054688 C 302.2312622070312 858.5881958007812 319.5574340820312 860.8908081054688 336.9603881835938 860.8908081054688 L 601.0751953125 860.8908081054688 C 618.4781494140625 860.8908081054688 635.8043212890625 858.5881958007812 652.572265625 854.0470581054688 C 669.0681762695312 849.5797119140625 684.9398193359375 842.97119140625 699.7461547851562 834.4053344726562 C 714.5526733398438 825.8392944335938 728.1930541992188 815.3743286132812 740.2886962890625 803.30078125 C 752.5838012695312 791.028076171875 763.216552734375 777.1557006835938 771.8914184570312 762.0689086914062 L 904.6611938476562 531.164794921875 C 913.2908935546875 516.1565551757812 919.908447265625 500.075439453125 924.3298950195312 483.3683166503906 C 928.6802978515625 466.9298095703125 930.8861694335938 449.9650573730469 930.8861694335938 432.9454345703125 C 930.8861694335938 415.9256896972656 928.6802978515625 398.9609375 924.3298950195312 382.5224304199219 C 919.908447265625 365.8153076171875 913.2908935546875 349.7343139648438 904.6611938476562 334.72607421875 L 771.8914184570312 103.8219604492188 C 763.216552734375 88.73516845703125 752.5838012695312 74.8626708984375 740.2886962890625 62.58990478515625 C 728.1930541992188 50.51641845703125 714.5525512695312 40.05145263671875 699.7461547851562 31.48541259765625 C 684.939697265625 22.9195556640625 669.0681762695312 16.31103515625 652.572265625 11.84368896484375 C 635.8043212890625 7.30242919921875 618.47802734375 4.99993896484375 601.0751953125 4.99993896484375 L 336.9603881835938 4.99993896484375 M 336.9603881835938 -6.103515625e-05 L 601.0751953125 -6.103515625e-05 C 673.3846435546875 -6.103515625e-05 740.1815185546875 38.6436767578125 776.2259521484375 101.32958984375 L 908.9956665039062 332.2337036132812 C 944.8496704101562 394.5881958007812 944.8496704101562 471.3025512695312 908.9956665039062 533.6572265625 L 776.2259521484375 764.561279296875 C 740.1815185546875 827.2470703125 673.384765625 865.8906860351562 601.0751953125 865.8908081054688 L 336.9603881835938 865.8908081054688 C 264.6506958007812 865.8906860351562 197.8539428710938 827.2470703125 161.8096923828125 764.561279296875 L 29.039794921875 533.6571044921875 C -6.8140869140625 471.3025512695312 -6.8140869140625 394.5881958007812 29.039794921875 332.2337036132812 L 161.809814453125 101.3294067382812 C 197.8540649414062 38.6436767578125 264.6506958007812 -6.103515625e-05 336.9603881835938 -6.103515625e-05 Z" stroke="none" fill="#2ced94"/>
      </g>
      <g id="Path_10" data-name="Path 10" transform="translate(1486.851 939.64)" fill="rgba(42,238,148,0)" opacity="0.7">
        <path d="M 515.6473999023438 739.8846435546875 L 289.2047119140625 739.8846435546875 C 274.1262817382812 739.8846435546875 259.1142883300781 737.8895263671875 244.5857238769531 733.9549560546875 C 230.2930603027344 730.0841674804688 216.5413818359375 724.3583984375 203.7127227783203 716.9366455078125 C 190.8840484619141 709.5148315429688 179.0655059814453 700.4476318359375 168.5856170654297 689.9867553710938 C 157.9324951171875 679.3532104492188 148.7200622558594 667.3336181640625 141.2038269042969 654.261962890625 L 27.37150001525879 456.292724609375 C 19.89450073242188 443.2891845703125 14.16083335876465 429.35595703125 10.3299446105957 414.8801879882812 C 6.560611248016357 400.6372985839844 4.649389266967773 385.9385070800781 4.649389266967773 371.1922912597656 C 4.649389266967773 356.4459533691406 6.560611248016357 341.7471923828125 10.3299446105957 327.5043029785156 C 14.16083335876465 313.0285034179688 19.89450073242188 299.0953979492188 27.37150001525879 286.0918579101562 L 141.2038269042969 88.12262725830078 C 148.7200622558594 75.05095672607422 157.9326171875 63.03140258789062 168.5856170654297 52.39784622192383 C 179.0656127929688 41.93695831298828 190.8840484619141 32.86973571777344 203.7128295898438 25.44795799255371 C 216.54150390625 18.02618026733398 230.2930603027344 12.30040264129639 244.5857238769531 8.429736137390137 C 259.1142883300781 4.495069026947021 274.1262817382812 2.500069141387939 289.2047119140625 2.500069141387939 L 515.6473999023438 2.500069141387939 C 530.725830078125 2.500069141387939 545.7378540039062 4.495069026947021 560.2664184570312 8.429736137390137 C 574.5589599609375 12.30040264129639 588.3106079101562 18.02618026733398 601.1392822265625 25.44795799255371 C 613.9680786132812 32.86973571777344 625.7864990234375 41.93695831298828 636.2664794921875 52.39784622192383 C 646.9196166992188 63.03140258789062 656.1321411132812 75.05095672607422 663.6483764648438 88.12262725830078 L 777.4805908203125 286.0918579101562 C 784.9576416015625 299.0953979492188 790.6912841796875 313.0285034179688 794.5221557617188 327.5043029785156 C 798.29150390625 341.7471923828125 800.2026977539062 356.4459533691406 800.2026977539062 371.1922912597656 C 800.2026977539062 385.9386291503906 798.29150390625 400.6373901367188 794.5221557617188 414.8802795410156 C 790.6912841796875 429.3560791015625 784.9576416015625 443.2891845703125 777.4805908203125 456.292724609375 L 663.6483764648438 654.261962890625 C 656.1321411132812 667.3336181640625 646.9196166992188 679.3532104492188 636.2664794921875 689.9867553710938 C 625.7864990234375 700.4476318359375 613.9680786132812 709.5148315429688 601.1392822265625 716.9366455078125 C 588.3106079101562 724.3583984375 574.5589599609375 730.0841674804688 560.2664184570312 733.9549560546875 C 545.7378540039062 737.8895263671875 530.725830078125 739.8846435546875 515.6473999023438 739.8846435546875 Z" stroke="none"/>
        <path d="M 289.20458984375 4.99993896484375 C 274.3468627929688 4.99993896484375 259.5547485351562 6.96575927734375 245.2391967773438 10.84271240234375 C 231.1559448242188 14.65673828125 217.6055908203125 20.2987060546875 204.9647216796875 27.61181640625 C 192.32373046875 34.92498779296875 180.6782836914062 43.8594970703125 170.3517456054688 54.16717529296875 C 159.8548583984375 64.64483642578125 150.7771606445312 76.4884033203125 143.3710327148438 89.36865234375 L 29.538818359375 287.3379516601562 C 22.171142578125 300.1511840820312 16.521484375 313.8802795410156 12.7467041015625 328.1439514160156 C 9.0325927734375 342.1781921386719 7.1494140625 356.6617431640625 7.1494140625 371.1922912597656 C 7.1494140625 385.7227478027344 9.0325927734375 400.206298828125 12.7467041015625 414.2406311035156 C 16.521484375 428.5041809082031 22.171142578125 442.2332763671875 29.538818359375 455.046630859375 L 143.3710327148438 653.0157470703125 C 150.7771606445312 665.8960571289062 159.8548583984375 677.7396240234375 170.3517456054688 688.21728515625 C 180.6781616210938 698.5249633789062 192.3236083984375 707.4595336914062 204.964599609375 714.7726440429688 C 217.6055908203125 722.0857543945312 231.1558227539062 727.7277221679688 245.2391967773438 731.541748046875 C 259.5547485351562 735.4187622070312 274.3468627929688 737.384521484375 289.20458984375 737.384521484375 L 515.6473999023438 737.384521484375 C 530.505126953125 737.384521484375 545.2972412109375 735.4187622070312 559.6128540039062 731.541748046875 C 573.6961669921875 727.7277221679688 587.2463989257812 722.0857543945312 599.8873901367188 714.7726440429688 C 612.5283813476562 707.4595336914062 624.173828125 698.5249633789062 634.500244140625 688.21728515625 C 644.9971923828125 677.7396240234375 654.0748291015625 665.8960571289062 661.48095703125 653.0157470703125 L 775.3131713867188 455.046630859375 C 782.6808471679688 442.2332763671875 788.3306274414062 428.5043029785156 792.1054077148438 414.2406311035156 C 795.8195190429688 400.2063903808594 797.7026977539062 385.7228393554688 797.7026977539062 371.1922912597656 C 797.7026977539062 356.6617431640625 795.8195190429688 342.1781921386719 792.1054077148438 328.1439514160156 C 788.3306274414062 313.8802795410156 782.6808471679688 300.1513061523438 775.3131713867188 287.3379516601562 L 661.48095703125 89.36871337890625 C 654.0748291015625 76.4884033203125 644.9971923828125 64.64495849609375 634.500244140625 54.16717529296875 C 624.173828125 43.8594970703125 612.5283813476562 34.92498779296875 599.8873901367188 27.61181640625 C 587.2463989257812 20.2987060546875 573.696044921875 14.65673828125 559.6128540039062 10.84271240234375 C 545.2972412109375 6.96575927734375 530.505126953125 4.99993896484375 515.6473999023438 4.99993896484375 L 289.20458984375 4.99993896484375 M 289.20458984375 -6.103515625e-05 L 515.6473999023438 -6.103515625e-05 C 577.6431884765625 -6.103515625e-05 634.912353515625 33.1317138671875 665.8154907226562 86.87640380859375 L 779.647705078125 284.8456115722656 C 810.3876953125 338.3061828613281 810.3876953125 404.0783996582031 779.647705078125 457.5389709472656 L 665.8154907226562 655.508056640625 C 634.912353515625 709.2528686523438 577.6431884765625 742.3843994140625 515.6473999023438 742.384521484375 L 289.20458984375 742.384521484375 C 227.2088623046875 742.3843994140625 169.9396362304688 709.2528686523438 139.0364990234375 655.508056640625 L 25.20428466796875 457.5389709472656 C -5.53558349609375 404.0782775878906 -5.53558349609375 338.3061828613281 25.20428466796875 284.8456115722656 L 139.0364990234375 86.87628173828125 C 169.939697265625 33.1317138671875 227.2088623046875 -6.103515625e-05 289.20458984375 -6.103515625e-05 Z" stroke="none" fill="#2ced94"/>
      </g>
    </g>
  </g>
</svg>
