<svg xmlns="http://www.w3.org/2000/svg" width="317.088" height="294.048" viewBox="0 0 317.088 294.048">
  <g id="Tandem" transform="translate(0 0)">
    <path id="Subtraction_1" data-name="Subtraction 1" d="M-268.935-98.928h-89.69a68.7,68.7,0,0,1-34.358-9.222,68.7,68.7,0,0,1-25.122-25.188l-45.087-78.412a68.621,68.621,0,0,1-6.849-16.643,68.659,68.659,0,0,1-2.283-17.558,68.66,68.66,0,0,1,2.283-17.558,68.621,68.621,0,0,1,6.849-16.643l45.087-78.412a68.7,68.7,0,0,1,25.122-25.188,68.7,68.7,0,0,1,34.358-9.222h89.69a68.7,68.7,0,0,1,34.358,9.222,68.7,68.7,0,0,1,25.121,25.188l45.087,78.412a68.62,68.62,0,0,1,6.849,16.643,68.655,68.655,0,0,1,2.283,17.558,68.655,68.655,0,0,1-2.283,17.558,68.62,68.62,0,0,1-6.849,16.643l-45.087,78.412a68.7,68.7,0,0,1-25.121,25.188A68.7,68.7,0,0,1-268.935-98.928Zm-117.9-167.132a1.753,1.753,0,0,0-.6.115c-4.2,1.544-4.655,19.158-4.655,26.659a77.821,77.821,0,0,0,6.154,30.481,78.039,78.039,0,0,0,16.782,24.892,78.06,78.06,0,0,0,24.891,16.782,77.823,77.823,0,0,0,30.482,6.153,77.829,77.829,0,0,0,30.482-6.153,78.059,78.059,0,0,0,24.891-16.782,78.054,78.054,0,0,0,16.782-24.892,77.821,77.821,0,0,0,6.153-30.481c0-7.5-.454-25.115-4.655-26.659a1.751,1.751,0,0,0-.6-.115c-1.7,0-2.7,2.923-4.095,6.968-1.451,4.217-3.256,9.465-6.646,13.926-7.147,9.406-10.6,11.87-16.864,16.342A77.775,77.775,0,0,1-313.781-214.3a77.771,77.771,0,0,1-45.446-14.529c-6.265-4.471-9.716-6.934-16.865-16.342-3.39-4.461-5.2-9.709-6.646-13.926C-384.129-263.138-385.135-266.061-386.833-266.06Zm70.705-64.866a41.4,41.4,0,0,0-16.215,3.274,41.519,41.519,0,0,0-13.241,8.928,41.52,41.52,0,0,0-8.927,13.241,41.4,41.4,0,0,0-3.273,16.215,41.4,41.4,0,0,0,3.273,16.214,41.519,41.519,0,0,0,8.927,13.241,41.518,41.518,0,0,0,13.241,8.927,41.4,41.4,0,0,0,16.215,3.274,41.4,41.4,0,0,0,16.215-3.274,41.517,41.517,0,0,0,13.241-8.927,41.519,41.519,0,0,0,8.927-13.241,41.4,41.4,0,0,0,3.273-16.214,41.4,41.4,0,0,0-3.273-16.215,41.52,41.52,0,0,0-8.927-13.241,41.517,41.517,0,0,0-13.241-8.928A41.4,41.4,0,0,0-316.128-330.926Z" transform="translate(472.325 392.976)" fill="#2aee94"/>
  </g>
</svg>
